<?xml version="1.0" encoding="utf-8" ?>
<svg xmlns="http://www.w3.org/2000/svg" xmlns:xlink="http://www.w3.org/1999/xlink" width="587" height="107">
	<path d="M42.7539 37.0039Q42.1953 32.2559 38.1777 29.6348Q34.1816 26.9922 28.3809 26.9922Q24.127 26.9922 20.9473 28.3672Q17.7891 29.7422 16.0059 32.1484Q14.2441 34.5547 14.2441 37.627Q14.2441 40.1836 15.4688 42.0098Q16.7148 43.8359 18.6484 45.0391Q20.6035 46.2422 22.709 47.0156Q24.8359 47.7891 26.6191 48.2402L33.1289 50.002Q35.6211 50.6465 38.6934 51.8066Q41.7871 52.9668 44.6016 54.9648Q47.4375 56.9414 49.2852 60.0352Q51.1328 63.1289 51.1328 67.6191Q51.1328 72.8184 48.4258 77.0078Q45.7188 81.1973 40.541 83.668Q35.3848 86.1172 27.9941 86.1172Q21.1191 86.1172 16.0918 83.9043Q11.0859 81.6914 8.22852 77.7168Q5.37109 73.7422 5.00586 68.5L12.998 68.5Q13.3203 72.1309 15.4473 74.4941Q17.5957 76.8359 20.8828 77.9961Q24.1914 79.1348 27.9941 79.1348Q32.4414 79.1348 35.9648 77.6738Q39.5098 76.2129 41.5723 73.6133Q43.6348 70.9922 43.6348 67.4902Q43.6348 64.3105 41.8516 62.3125Q40.0684 60.3145 37.1465 59.0684Q34.2461 57.8223 30.873 56.877L23.0098 54.6211Q15.4902 52.4727 11.1074 48.4766Q6.74609 44.459 6.74609 37.9922Q6.74609 32.6211 9.66797 28.6035Q12.5898 24.5859 17.5312 22.3516Q22.4941 20.1172 28.6172 20.1172Q34.8047 20.1172 39.6172 22.3301Q44.4297 24.5215 47.2656 28.3457Q50.1016 32.1484 50.252 37.0039L42.7539 37.0039ZM66.502 85L58.3809 85L81.8848 20.998L89.877 20.998L113.381 85L105.26 85L86.1172 31.1172L85.623 31.1172L66.502 85ZM69.5098 59.9922L102.252 59.9922L102.252 66.8672L69.5098 66.8672L69.5098 59.9922ZM164.123 41Q163.092 37.8418 161.416 35.3281Q159.74 32.8145 157.441 31.0312Q155.164 29.248 152.242 28.3242Q149.342 27.3789 145.883 27.3789Q140.189 27.3789 135.527 30.3223Q130.865 33.2441 128.115 38.9805Q125.365 44.6953 125.365 53.0098Q125.365 61.3027 128.137 67.0391Q130.93 72.7539 135.678 75.6973Q140.447 78.6191 146.377 78.6191Q151.877 78.6191 156.066 76.2773Q160.277 73.9141 162.641 69.5957Q165.004 65.2559 165.004 59.3691L167.367 59.8848L148.117 59.8848L148.117 53.0098L172.502 53.0098L172.502 59.8848Q172.502 67.791 169.129 73.6348Q165.777 79.4785 159.891 82.6797Q154.004 85.8809 146.377 85.8809Q137.869 85.8809 131.445 81.8848Q125.021 77.8672 121.434 70.498Q117.867 63.1289 117.867 53.0098Q117.867 45.4043 119.908 39.3242Q121.971 33.2441 125.709 28.9688Q129.469 24.6934 134.582 22.416Q139.717 20.1172 145.883 20.1172Q150.932 20.1172 155.314 21.6426Q159.719 23.1465 163.156 25.918Q166.615 28.6895 168.936 32.5137Q171.256 36.3379 172.115 41L164.123 41ZM186.377 85L178.256 85L201.76 20.998L209.752 20.998L233.256 85L225.135 85L205.992 31.1172L205.498 31.1172L186.377 85ZM189.385 59.9922L222.127 59.9922L222.127 66.8672L189.385 66.8672L189.385 59.9922ZM291.754 41L283.998 41Q283.311 37.6484 281.613 35.1348Q279.916 32.5996 277.488 30.8594Q275.061 29.1191 272.117 28.2598Q269.195 27.3789 265.994 27.3789Q260.193 27.3789 255.488 30.3223Q250.783 33.2441 248.012 38.9805Q245.24 44.6953 245.24 53.0098Q245.24 61.3027 248.012 67.0391Q250.783 72.7539 255.488 75.6973Q260.193 78.6191 265.994 78.6191Q269.195 78.6191 272.117 77.7598Q275.061 76.8789 277.488 75.1387Q279.916 73.3984 281.613 70.8633Q283.311 68.3066 283.998 64.998L291.754 64.998Q290.873 69.8965 288.553 73.7852Q286.254 77.6523 282.816 80.3594Q279.379 83.0664 275.104 84.4844Q270.85 85.8809 265.994 85.8809Q257.809 85.8809 251.428 81.8848Q245.068 77.8672 241.395 70.498Q237.742 63.1289 237.742 53.0098Q237.742 42.8691 241.395 35.5Q245.068 28.1309 251.428 24.1348Q257.809 20.1172 265.994 20.1172Q270.85 20.1172 275.104 21.5352Q279.379 22.9316 282.816 25.6387Q286.254 28.3457 288.553 32.2129Q290.873 36.0586 291.754 41ZM304.256 85L304.256 20.998L342.885 20.998L342.885 27.873L311.99 27.873L311.99 49.5078L340.865 49.5078L340.865 56.3828L311.99 56.3828L311.99 78.125L343.379 78.125L343.379 85L304.256 85ZM353.379 27.873L353.379 20.998L401.375 20.998L401.375 27.873L381.244 27.873L381.244 85L373.51 85L373.51 27.873L353.379 27.873ZM413.381 85L413.381 20.998L452.01 20.998L452.01 27.873L421.115 27.873L421.115 49.5078L449.99 49.5078L449.99 56.3828L421.115 56.3828L421.115 78.125L452.504 78.125L452.504 85L413.381 85ZM517.504 41L509.748 41Q509.061 37.6484 507.363 35.1348Q505.666 32.5996 503.238 30.8594Q500.811 29.1191 497.867 28.2598Q494.945 27.3789 491.744 27.3789Q485.943 27.3789 481.238 30.3223Q476.533 33.2441 473.762 38.9805Q470.99 44.6953 470.99 53.0098Q470.99 61.3027 473.762 67.0391Q476.533 72.7539 481.238 75.6973Q485.943 78.6191 491.744 78.6191Q494.945 78.6191 497.867 77.7598Q500.811 76.8789 503.238 75.1387Q505.666 73.3984 507.363 70.8633Q509.061 68.3066 509.748 64.998L517.504 64.998Q516.623 69.8965 514.303 73.7852Q512.004 77.6523 508.566 80.3594Q505.129 83.0664 500.854 84.4844Q496.6 85.8809 491.744 85.8809Q483.559 85.8809 477.178 81.8848Q470.818 77.8672 467.145 70.498Q463.492 63.1289 463.492 53.0098Q463.492 42.8691 467.145 35.5Q470.818 28.1309 477.178 24.1348Q483.559 20.1172 491.744 20.1172Q496.6 20.1172 500.854 21.5352Q505.129 22.9316 508.566 25.6387Q512.004 28.3457 514.303 32.2129Q516.623 36.0586 517.504 41ZM530.006 85L530.006 20.998L537.74 20.998L537.74 49.5078L571.879 49.5078L571.879 20.998L579.635 20.998L579.635 85L571.879 85L571.879 56.3828L537.74 56.3828L537.74 85L530.006 85Z"/>
</svg>
