<?xml version="1.0" encoding="utf-8" ?>
<svg xmlns="http://www.w3.org/2000/svg" xmlns:xlink="http://www.w3.org/1999/xlink" width="421" height="76">
	<path d="M30.6079 26.6392Q30.208 23.24 27.3318 21.3635Q24.4709 19.4717 20.3181 19.4717Q17.2727 19.4717 14.9963 20.4561Q12.7354 21.4404 11.4587 23.1631Q10.1975 24.8857 10.1975 27.0852Q10.1975 28.9155 11.0742 30.2229Q11.9663 31.5303 13.3506 32.3916Q14.7502 33.2529 16.2576 33.8066Q17.7803 34.3604 19.0569 34.6833L23.7173 35.9446Q25.5015 36.406 27.7009 37.2366Q29.9158 38.0671 31.9307 39.4976Q33.9609 40.9126 35.2837 43.1274Q36.6064 45.3423 36.6064 48.5569Q36.6064 52.2791 34.6685 55.2783Q32.7305 58.2776 29.0237 60.0464Q25.3323 61.7998 20.0413 61.7998Q15.1194 61.7998 11.5203 60.2156Q7.93652 58.6313 5.89087 55.7859Q3.84521 52.9404 3.58374 49.1875L9.30542 49.1875Q9.53613 51.7869 11.0588 53.4788Q12.5969 55.1553 14.9502 55.9858Q17.3188 56.801 20.0413 56.801Q23.2251 56.801 25.7476 55.7551Q28.2854 54.7092 29.762 52.8481Q31.2385 50.9717 31.2385 48.4646Q31.2385 46.1882 29.9619 44.7578Q28.6853 43.3274 26.5935 42.4353Q24.5171 41.5432 22.1023 40.8665L16.4729 39.2515Q11.0896 37.7134 7.9519 34.8525Q4.82959 31.9763 4.82959 27.3467Q4.82959 23.5015 6.92139 20.6252Q9.01318 17.749 12.5508 16.1494Q16.1038 14.5498 20.4873 14.5498Q24.917 14.5498 28.3623 16.134Q31.8076 17.7029 33.8379 20.4407Q35.8682 23.1631 35.9758 26.6392L30.6079 26.6392ZM47.6095 61L41.7955 61L58.6222 15.1804L64.3439 15.1804L81.1705 61L75.3566 61L61.6522 22.4248L61.2985 22.4248L47.6095 61ZM49.7628 43.0967L73.2033 43.0967L73.2033 48.0186L49.7628 48.0186L49.7628 43.0967ZM117.498 29.5Q116.759 27.239 115.56 25.4395Q114.36 23.6399 112.714 22.3633Q111.084 21.0867 108.992 20.4253Q106.915 19.7485 104.439 19.7485Q100.363 19.7485 97.0256 21.8557Q93.6879 23.9475 91.7192 28.0542Q89.7504 32.1455 89.7504 38.0979Q89.7504 44.0349 91.7346 48.1416Q93.7341 52.2329 97.1333 54.3401Q100.548 56.4319 104.793 56.4319Q108.73 56.4319 111.73 54.7554Q114.744 53.0635 116.436 49.9719Q118.128 46.865 118.128 42.6506L119.82 43.0198L106.039 43.0198L106.039 38.0979L123.496 38.0979L123.496 43.0198Q123.496 48.6799 121.081 52.8635Q118.682 57.0471 114.467 59.3389Q110.253 61.6306 104.793 61.6306Q98.7021 61.6306 94.1032 58.7698Q89.5043 55.8936 86.9357 50.6179Q84.3825 45.3423 84.3825 38.0979Q84.3825 32.6531 85.8437 28.3003Q87.3203 23.9475 89.9965 20.8867Q92.6882 17.8259 96.3488 16.1956Q100.025 14.5498 104.439 14.5498Q108.054 14.5498 111.191 15.6418Q114.344 16.7185 116.805 18.7026Q119.282 20.6868 120.943 23.4246Q122.604 26.1624 123.219 29.5L117.498 29.5ZM133.429 61L127.615 61L144.442 15.1804L150.164 15.1804L166.99 61L161.177 61L147.472 22.4248L147.118 22.4248L133.429 61ZM135.583 43.0967L159.023 43.0967L159.023 48.0186L135.583 48.0186L135.583 43.0967ZM208.87 29.5L203.317 29.5Q202.825 27.1006 201.61 25.301Q200.395 23.4861 198.657 22.2402Q196.919 20.9944 194.812 20.3792Q192.72 19.7485 190.428 19.7485Q186.275 19.7485 182.907 21.8557Q179.539 23.9475 177.555 28.0542Q175.57 32.1455 175.57 38.0979Q175.57 44.0349 177.555 48.1416Q179.539 52.2329 182.907 54.3401Q186.275 56.4319 190.428 56.4319Q192.72 56.4319 194.812 55.8167Q196.919 55.186 198.657 53.9402Q200.395 52.6943 201.61 50.8794Q202.825 49.0491 203.317 46.6804L208.87 46.6804Q208.239 50.1873 206.578 52.9712Q204.932 55.7397 202.472 57.6777Q200.011 59.6157 196.95 60.6309Q193.904 61.6306 190.428 61.6306Q184.568 61.6306 180 58.7698Q175.447 55.8936 172.817 50.6179Q170.202 45.3423 170.202 38.0979Q170.202 30.8381 172.817 25.5625Q175.447 20.2869 180 17.426Q184.568 14.5498 190.428 14.5498Q193.904 14.5498 196.95 15.5649Q200.011 16.5647 202.472 18.5027Q204.932 20.4407 206.578 23.2092Q208.239 25.9624 208.87 29.5ZM217.82 61L217.82 15.1804L245.475 15.1804L245.475 20.1023L223.357 20.1023L223.357 35.5908L244.029 35.5908L244.029 40.5127L223.357 40.5127L223.357 56.0781L245.829 56.0781L245.829 61L217.82 61ZM252.988 20.1023L252.988 15.1804L287.349 15.1804L287.349 20.1023L272.937 20.1023L272.937 61L267.4 61L267.4 20.1023L252.988 20.1023ZM295.944 61L295.944 15.1804L323.599 15.1804L323.599 20.1023L301.481 20.1023L301.481 35.5908L322.153 35.5908L322.153 40.5127L301.481 40.5127L301.481 56.0781L323.953 56.0781L323.953 61L295.944 61ZM370.487 29.5L364.935 29.5Q364.442 27.1006 363.227 25.301Q362.012 23.4861 360.274 22.2402Q358.536 20.9944 356.429 20.3792Q354.337 19.7485 352.045 19.7485Q347.893 19.7485 344.524 21.8557Q341.156 23.9475 339.172 28.0542Q337.188 32.1455 337.188 38.0979Q337.188 44.0349 339.172 48.1416Q341.156 52.2329 344.524 54.3401Q347.893 56.4319 352.045 56.4319Q354.337 56.4319 356.429 55.8167Q358.536 55.186 360.274 53.9402Q362.012 52.6943 363.227 50.8794Q364.442 49.0491 364.935 46.6804L370.487 46.6804Q369.856 50.1873 368.195 52.9712Q366.55 55.7397 364.089 57.6777Q361.628 59.6157 358.567 60.6309Q355.521 61.6306 352.045 61.6306Q346.185 61.6306 341.617 58.7698Q337.064 55.8936 334.434 50.6179Q331.82 45.3423 331.82 38.0979Q331.82 30.8381 334.434 25.5625Q337.064 20.2869 341.617 17.426Q346.185 14.5498 352.045 14.5498Q355.521 14.5498 358.567 15.5649Q361.628 16.5647 364.089 18.5027Q366.55 20.4407 368.195 23.2092Q369.856 25.9624 370.487 29.5ZM379.438 61L379.438 15.1804L384.975 15.1804L384.975 35.5908L409.415 35.5908L409.415 15.1804L414.967 15.1804L414.967 61L409.415 61L409.415 40.5127L384.975 40.5127L384.975 61L379.438 61Z"/>
</svg>
