<?xml version="1.0" encoding="utf-8" ?>
<svg xmlns="http://www.w3.org/2000/svg" xmlns:xlink="http://www.w3.org/1999/xlink" width="280" height="51">
	<path d="M20.4053 18.0928Q20.1387 15.8267 18.2212 14.5757Q16.314 13.3145 13.5454 13.3145Q11.5151 13.3145 9.99756 13.9707Q8.49023 14.627 7.63916 15.7754Q6.79834 16.9238 6.79834 18.3901Q6.79834 19.6104 7.38281 20.4819Q7.97754 21.3535 8.90039 21.9277Q9.8335 22.502 10.8384 22.8711Q11.8535 23.2402 12.7046 23.4556L15.8115 24.2964Q17.001 24.604 18.4673 25.1577Q19.9438 25.7114 21.2871 26.665Q22.6406 27.6084 23.5225 29.085Q24.4043 30.5615 24.4043 32.7046Q24.4043 35.186 23.1123 37.1855Q21.8203 39.1851 19.3491 40.3643Q16.8882 41.5332 13.3608 41.5332Q10.0796 41.5332 7.68018 40.4771Q5.29102 39.4209 3.92725 37.5239Q2.56348 35.627 2.38916 33.125L6.20361 33.125Q6.35742 34.8579 7.37256 35.9858Q8.39795 37.1035 9.9668 37.6572Q11.5459 38.2007 13.3608 38.2007Q15.4834 38.2007 17.165 37.5034Q18.8569 36.8062 19.8413 35.5654Q20.8257 34.3145 20.8257 32.6431Q20.8257 31.1255 19.9746 30.1719Q19.1235 29.2183 17.729 28.6235Q16.3447 28.0288 14.7349 27.5776L10.9819 26.501Q7.39307 25.4756 5.30127 23.5684Q3.21973 21.6509 3.21973 18.5645Q3.21973 16.001 4.61426 14.0835Q6.00879 12.166 8.36719 11.0996Q10.7358 10.0332 13.6582 10.0332Q16.6113 10.0332 18.9082 11.0894Q21.2051 12.1353 22.5586 13.9604Q23.9121 15.7754 23.9839 18.0928L20.4053 18.0928ZM31.7395 41L27.8636 41L39.0813 10.4536L42.8958 10.4536L54.1136 41L50.2376 41L41.1013 15.2832L40.8655 15.2832L31.7395 41ZM33.1751 29.0645L48.802 29.0645L48.802 32.3457L33.1751 32.3457L33.1751 29.0645ZM78.3314 20Q77.8392 18.4927 77.0394 17.293Q76.2396 16.0933 75.1424 15.2422Q74.0555 14.3911 72.661 13.9502Q71.2767 13.499 69.6258 13.499Q66.9085 13.499 64.6834 14.9038Q62.4583 16.2983 61.1458 19.0361Q59.8333 21.7637 59.8333 25.7319Q59.8333 29.6899 61.1561 32.4277Q62.4891 35.1553 64.7552 36.5601Q67.0316 37.9546 69.8616 37.9546Q72.4866 37.9546 74.4862 36.8369Q76.4959 35.709 77.6239 33.6479Q78.7518 31.5767 78.7518 28.7671L79.8797 29.0132L70.6922 29.0132L70.6922 25.7319L82.3304 25.7319L82.3304 29.0132Q82.3304 32.7866 80.7205 35.5757Q79.1209 38.3647 76.3114 39.8926Q73.5018 41.4204 69.8616 41.4204Q65.8011 41.4204 62.7352 39.5132Q59.6693 37.5957 57.9569 34.0786Q56.2547 30.5615 56.2547 25.7319Q56.2547 22.1021 57.2288 19.2002Q58.2132 16.2983 59.9974 14.2578Q61.7918 12.2173 64.2323 11.1304Q66.6829 10.0332 69.6258 10.0332Q72.0355 10.0332 74.1273 10.7612Q76.2293 11.479 77.8699 12.8018Q79.5208 14.1245 80.6283 15.9497Q81.7357 17.7749 82.1458 20L78.3314 20ZM88.9525 41L85.0765 41L96.2943 10.4536L100.109 10.4536L111.327 41L107.451 41L98.3143 15.2832L98.0785 15.2832L88.9525 41ZM90.3881 29.0645L106.015 29.0645L106.015 32.3457L90.3881 32.3457L90.3881 29.0645ZM139.246 20L135.544 20Q135.216 18.4004 134.406 17.2007Q133.596 15.9907 132.437 15.1602Q131.279 14.3296 129.874 13.9194Q128.479 13.499 126.952 13.499Q124.183 13.499 121.937 14.9038Q119.692 16.2983 118.369 19.0361Q117.046 21.7637 117.046 25.7319Q117.046 29.6899 118.369 32.4277Q119.692 35.1553 121.937 36.5601Q124.183 37.9546 126.952 37.9546Q128.479 37.9546 129.874 37.5444Q131.279 37.124 132.437 36.2935Q133.596 35.4629 134.406 34.2529Q135.216 33.0327 135.544 31.4536L139.246 31.4536Q138.826 33.7915 137.718 35.6475Q136.621 37.4932 134.98 38.7852Q133.34 40.0771 131.299 40.7539Q129.269 41.4204 126.952 41.4204Q123.045 41.4204 119.999 39.5132Q116.964 37.5957 115.211 34.0786Q113.468 30.5615 113.468 25.7319Q113.468 20.8921 115.211 17.375Q116.964 13.8579 119.999 11.9507Q123.045 10.0332 126.952 10.0332Q129.269 10.0332 131.299 10.71Q133.34 11.3765 134.98 12.6685Q136.621 13.9604 137.718 15.8062Q138.826 17.6416 139.246 20ZM145.213 41L145.213 10.4536L163.649 10.4536L163.649 13.7349L148.904 13.7349L148.904 24.0605L162.685 24.0605L162.685 27.3418L148.904 27.3418L148.904 37.7188L163.885 37.7188L163.885 41L145.213 41ZM168.658 13.7349L168.658 10.4536L191.565 10.4536L191.565 13.7349L181.957 13.7349L181.957 41L178.266 41L178.266 13.7349L168.658 13.7349ZM197.295 41L197.295 10.4536L215.732 10.4536L215.732 13.7349L200.987 13.7349L200.987 24.0605L214.768 24.0605L214.768 27.3418L200.987 27.3418L200.987 37.7188L215.967 37.7188L215.967 41L197.295 41ZM246.99 20L243.289 20Q242.96 18.4004 242.15 17.2007Q241.34 15.9907 240.182 15.1602Q239.023 14.3296 237.618 13.9194Q236.224 13.499 234.696 13.499Q231.927 13.499 229.682 14.9038Q227.436 16.2983 226.113 19.0361Q224.79 21.7637 224.79 25.7319Q224.79 29.6899 226.113 32.4277Q227.436 35.1553 229.682 36.5601Q231.927 37.9546 234.696 37.9546Q236.224 37.9546 237.618 37.5444Q239.023 37.124 240.182 36.2935Q241.34 35.4629 242.15 34.2529Q242.96 33.0327 243.289 31.4536L246.99 31.4536Q246.57 33.7915 245.462 35.6475Q244.365 37.4932 242.725 38.7852Q241.084 40.0771 239.043 40.7539Q237.013 41.4204 234.696 41.4204Q230.789 41.4204 227.744 39.5132Q224.708 37.5957 222.955 34.0786Q221.212 30.5615 221.212 25.7319Q221.212 20.8921 222.955 17.375Q224.708 13.8579 227.744 11.9507Q230.789 10.0332 234.696 10.0332Q237.013 10.0332 239.043 10.71Q241.084 11.3765 242.725 12.6685Q244.365 13.9604 245.462 15.8062Q246.57 17.6416 246.99 20ZM252.957 41L252.957 10.4536L256.648 10.4536L256.648 24.0605L272.942 24.0605L272.942 10.4536L276.643 10.4536L276.643 41L272.942 41L272.942 27.3418L256.648 27.3418L256.648 41L252.957 41Z"/>
</svg>
